<?xml version="1.0" standalone="no"?>
<!DOCTYPE svg PUBLIC "-//W3C//DTD SVG 20010904//EN"
 "http://www.w3.org/TR/2001/REC-SVG-20010904/DTD/svg10.dtd">
<svg version="1.0" xmlns="http://www.w3.org/2000/svg"
 width="700.000000pt" height="700.000000pt" viewBox="0 0 700.000000 700.000000"
 preserveAspectRatio="xMidYMid meet">
<metadata>
Created by potrace 1.14, written by Peter Selinger 2001-2017
</metadata>
<g transform="translate(0.000000,700.000000) scale(0.100000,-0.100000)"
fill="#000000" stroke="none">
<path d="M4500 6805 c-569 -25 -1452 -60 -2355 -95 -280 -11 -548 -25 -595
-30 -414 -53 -741 -375 -792 -780 -9 -68 0 -451 46 -1890 31 -993 60 -1872 66
-1955 10 -166 37 -279 91 -388 143 -282 407 -473 715 -517 52 -7 151 -9 288
-4 l210 7 -69 -99 c-38 -54 -134 -191 -212 -303 -85 -121 -148 -221 -154 -245
-21 -79 10 -178 73 -231 53 -44 94 -57 170 -53 111 6 112 7 459 502 170 241
310 440 312 443 4 3 1466 53 1577 53 l55 0 395 -477 c357 -431 399 -478 445
-499 173 -81 366 68 325 253 -6 25 -15 54 -20 64 -6 10 -134 165 -285 345
-152 180 -274 328 -272 330 2 2 102 8 223 13 251 11 337 28 471 91 309 145
521 451 539 780 9 147 -153 3841 -172 3941 -68 362 -328 653 -659 740 -117 30
-248 31 -875 4z m274 -2280 c226 -60 408 -236 522 -506 70 -164 134 -486 134
-669 0 -127 -104 -207 -197 -150 -55 33 -64 58 -79 211 -29 307 -88 499 -199
647 -159 211 -485 243 -675 66 -140 -131 -210 -358 -214 -704 -3 -206 -10
-235 -69 -270 -66 -41 -142 -15 -185 64 -24 43 -23 366 2 511 35 212 102 398
186 519 105 153 262 256 445 292 85 17 246 11 329 -11z m-2184 -72 c382 -90
628 -476 681 -1064 13 -151 5 -193 -46 -238 -30 -26 -44 -31 -85 -31 -41 0
-55 5 -84 30 -43 38 -53 69 -60 190 -13 199 -54 368 -127 518 -80 165 -197
268 -340 301 -66 16 -207 13 -274 -4 -174 -45 -298 -193 -360 -428 -33 -126
-45 -234 -45 -413 0 -140 -2 -153 -23 -185 -61 -92 -180 -85 -235 14 -14 27
-17 60 -16 222 1 259 35 444 117 635 116 268 341 441 611 470 89 9 202 3 286
-17z m1630 -2078 c61 -32 93 -114 67 -176 -23 -54 -101 -143 -174 -198 -271
-203 -626 -256 -947 -140 -162 59 -361 216 -385 305 -27 100 64 198 165 179
25 -4 58 -27 109 -74 87 -81 136 -111 241 -148 71 -24 92 -27 214 -27 119 1
145 4 215 27 111 37 196 90 272 170 35 38 77 75 91 83 35 18 96 18 132 -1z"/>
</g>
</svg>
