<?xml version="1.0" encoding="UTF-8" standalone="no"?>
<!DOCTYPE svg PUBLIC "-//W3C//DTD SVG 1.1//EN" "http://www.w3.org/Graphics/SVG/1.1/DTD/svg11.dtd">
<svg width="100%" height="100%" viewBox="0 0 40 40" version="1.1" xmlns="http://www.w3.org/2000/svg" xmlns:xlink="http://www.w3.org/1999/xlink" xml:space="preserve" xmlns:serif="http://www.serif.com/" style="fill-rule:evenodd;clip-rule:evenodd;stroke-linecap:round;stroke-linejoin:round;stroke-miterlimit:1.5;">
    <g transform="matrix(1,0,0,1,-44.7837,-307.164)">
        <g id="sleepy" transform="matrix(0.398,0,0,0.398386,-77.933,307.164)">
            <rect x="308.333" y="0" width="100" height="100" style="fill:none;"/>
            <clipPath id="_clip1">
                <rect x="308.333" y="0" width="100" height="100"/>
            </clipPath>
            <g clip-path="url(#_clip1)">
                <g transform="matrix(0.847521,0,0,0.847521,37.9015,17.5268)">
                    <g transform="matrix(3.482,-0.110176,0.110283,3.47862,264.276,-478.471)">
                        <path d="M29.415,139.186L15.028,139.301C12.928,139.307 11.219,140.918 11.213,143.018L11.213,158.347C11.219,160.446 12.945,162.172 15.045,162.179L16.482,162.179L14.757,164.478C14.442,164.898 14.529,165.504 14.949,165.819C15.114,165.946 15.316,166.014 15.524,166.011C15.825,166.011 16.109,165.869 16.29,165.628L18.877,162.179L25.583,162.179L28.6,166.058C28.78,166.299 29.065,166.441 29.366,166.441C29.574,166.444 29.776,166.376 29.941,166.25C30.361,165.934 30.448,165.329 30.132,164.908L27.978,162.179L29.415,162.179C31.515,162.172 33.241,160.446 33.247,158.347L33.079,143.1C33.073,141 31.515,139.193 29.415,139.186Z" style="fill:rgb(30,58,138);fill-rule:nonzero;"/>
                    </g>
                    <g transform="matrix(-4.59316,0.145336,-0.117073,-3.69278,429.727,232.024)">
                        <path d="M15.396,52.403C15.396,52.403 15.186,49.449 17.463,49.449C19.74,49.449 19.618,52.378 19.618,52.378" style="fill:none;stroke:white;stroke-width:1.18px;"/>
                    </g>
                    <g transform="matrix(-4.39075,0.138931,-0.117073,-3.69278,457.574,231.129)">
                        <path d="M15.396,52.403C15.396,52.403 15.186,49.449 17.463,49.449C19.74,49.449 19.618,52.378 19.618,52.378" style="fill:none;stroke:white;stroke-width:1.22px;"/>
                    </g>
                    <g transform="matrix(1.42548,0,0,1.4241,268.113,-407.251)">
                        <circle cx="64.95" cy="336.279" r="1.599" style="fill:white;stroke:white;stroke-width:2.17px;"/>
                    </g>
                </g>
                <g transform="matrix(3.08742,0,0,3.05007,146.058,-934.952)">
                    <path d="M72.603,313.735L80.059,309.104L75.024,307.775C74.927,307.75 74.84,307.722 74.765,307.691C74.689,307.661 74.615,307.626 74.542,307.586C74.134,307.311 74.008,306.881 74.162,306.296L74.625,304.539C74.651,304.442 74.681,304.35 74.713,304.265C74.746,304.18 74.793,304.103 74.852,304.035C75.102,303.642 75.52,303.523 76.105,303.677L85.619,306.187C86.205,306.341 86.509,306.651 86.532,307.117C86.551,307.205 86.553,307.294 86.54,307.385C86.526,307.475 86.507,307.569 86.481,307.667L85.964,309.628C85.948,309.687 85.926,309.733 85.896,309.767C85.866,309.801 85.849,309.827 85.843,309.847C85.838,309.866 85.821,309.893 85.791,309.927L85.779,309.971C85.777,309.981 85.766,309.983 85.746,309.978C85.716,310.012 85.692,310.047 85.671,310.083C85.651,310.12 85.617,310.152 85.567,310.181L85.338,310.34L77.277,315.258L83.132,316.803C83.229,316.828 83.316,316.856 83.391,316.887C83.467,316.917 83.541,316.952 83.614,316.992C84.022,317.267 84.148,317.697 83.994,318.282L83.53,320.039C83.505,320.136 83.475,320.228 83.442,320.313C83.41,320.398 83.363,320.475 83.304,320.543C83.054,320.936 82.636,321.055 82.051,320.901L72.247,318.315L75.113,316.431C75.096,316.451 75.086,316.466 75.083,316.478C75.08,316.489 75.07,316.505 75.053,316.524L75.046,316.55C75.044,316.555 75.038,316.557 75.027,316.554C75.009,316.573 74.995,316.594 74.983,316.615C74.972,316.636 74.951,316.655 74.923,316.672L74.79,316.764L70.114,319.617L73.51,320.513C73.567,320.528 73.617,320.544 73.661,320.561C73.704,320.579 73.747,320.6 73.79,320.623C74.026,320.782 74.1,321.031 74.01,321.371L73.741,322.39C73.726,322.447 73.709,322.5 73.69,322.549C73.671,322.599 73.644,322.643 73.61,322.682C73.465,322.91 73.222,322.98 72.883,322.89L67.109,321.367C66.77,321.277 66.593,321.098 66.579,320.828C66.569,320.776 66.567,320.724 66.575,320.672C66.583,320.62 66.594,320.565 66.609,320.508L66.905,319.388C66.906,319.291 66.932,319.192 66.983,319.091C67.034,318.989 67.124,318.901 67.253,318.826L71.376,316.265L71.452,315.974L68.807,315.276C68.75,315.261 68.7,315.245 68.656,315.227C68.612,315.21 68.569,315.189 68.527,315.166C68.291,315.007 68.217,314.757 68.307,314.418L68.575,313.399C68.59,313.342 68.607,313.289 68.627,313.24C68.646,313.19 68.672,313.146 68.707,313.107C68.852,312.878 69.094,312.809 69.434,312.899L72.603,313.735Z" style="fill:none;fill-rule:nonzero;stroke:white;stroke-width:2.56px;stroke-linecap:butt;stroke-miterlimit:2;"/>
                    <path d="M72.603,313.735L80.059,309.104L75.024,307.775C74.927,307.75 74.84,307.722 74.765,307.691C74.689,307.661 74.615,307.626 74.542,307.586C74.134,307.311 74.008,306.881 74.162,306.296L74.625,304.539C74.651,304.442 74.681,304.35 74.713,304.265C74.746,304.18 74.793,304.103 74.852,304.035C75.102,303.642 75.52,303.523 76.105,303.677L85.619,306.187C86.205,306.341 86.509,306.651 86.532,307.117C86.551,307.205 86.553,307.294 86.54,307.385C86.526,307.475 86.507,307.569 86.481,307.667L85.964,309.628C85.948,309.687 85.926,309.733 85.896,309.767C85.866,309.801 85.849,309.827 85.843,309.847C85.838,309.866 85.821,309.893 85.791,309.927L85.779,309.971C85.777,309.981 85.766,309.983 85.746,309.978C85.716,310.012 85.692,310.047 85.671,310.083C85.651,310.12 85.617,310.152 85.567,310.181L85.338,310.34L77.277,315.258L83.132,316.803C83.229,316.828 83.316,316.856 83.391,316.887C83.467,316.917 83.541,316.952 83.614,316.992C84.022,317.267 84.148,317.697 83.994,318.282L83.53,320.039C83.505,320.136 83.475,320.228 83.442,320.313C83.41,320.398 83.363,320.475 83.304,320.543C83.054,320.936 82.636,321.055 82.051,320.901L72.247,318.315L75.113,316.431C75.096,316.451 75.086,316.466 75.083,316.478C75.08,316.489 75.07,316.505 75.053,316.524L75.046,316.55C75.044,316.555 75.038,316.557 75.027,316.554C75.009,316.573 74.995,316.594 74.983,316.615C74.972,316.636 74.951,316.655 74.923,316.672L74.79,316.764L70.114,319.617L73.51,320.513C73.567,320.528 73.617,320.544 73.661,320.561C73.704,320.579 73.747,320.6 73.79,320.623C74.026,320.782 74.1,321.031 74.01,321.371L73.741,322.39C73.726,322.447 73.709,322.5 73.69,322.549C73.671,322.599 73.644,322.643 73.61,322.682C73.465,322.91 73.222,322.98 72.883,322.89L67.109,321.367C66.77,321.277 66.593,321.098 66.579,320.828C66.569,320.776 66.567,320.724 66.575,320.672C66.583,320.62 66.594,320.565 66.609,320.508L66.905,319.388C66.906,319.291 66.932,319.192 66.983,319.091C67.034,318.989 67.124,318.901 67.253,318.826L71.376,316.265L71.452,315.974L68.807,315.276C68.75,315.261 68.7,315.245 68.656,315.227C68.612,315.21 68.569,315.189 68.527,315.166C68.291,315.007 68.217,314.757 68.307,314.418L68.575,313.399C68.59,313.342 68.607,313.289 68.627,313.24C68.646,313.19 68.672,313.146 68.707,313.107C68.852,312.878 69.094,312.809 69.434,312.899L72.603,313.735Z" style="fill:rgb(30,58,138);fill-rule:nonzero;"/>
                </g>
            </g>
        </g>
    </g>
</svg>
