<?xml version="1.0" encoding="UTF-8" standalone="no"?>
<!DOCTYPE svg PUBLIC "-//W3C//DTD SVG 1.1//EN" "http://www.w3.org/Graphics/SVG/1.1/DTD/svg11.dtd">
<svg width="100%" height="100%" viewBox="0 0 100 40" version="1.1" xmlns="http://www.w3.org/2000/svg" xmlns:xlink="http://www.w3.org/1999/xlink" xml:space="preserve" xmlns:serif="http://www.serif.com/" style="fill-rule:evenodd;clip-rule:evenodd;stroke-linecap:round;stroke-linejoin:round;stroke-miterlimit:1.5;">
    <g transform="matrix(1,0,0,1,0,-252.728)">
        <g id="final" transform="matrix(1,0,0,0.398386,-308.333,252.728)">
            <rect x="308.333" y="0" width="100" height="100" style="fill:none;"/>
            <g transform="matrix(1.18156,0,0,2.96586,-65.4994,-87.7417)">
                <g transform="matrix(0.80024,0,0,0.80024,326.739,0.620141)">
                    <g transform="matrix(23.5348,0,0,23.5348,25.6531,57.4551)">
                        <path d="M0.283,0.012C0.23,0.012 0.184,0.001 0.145,-0.021C0.106,-0.043 0.075,-0.074 0.054,-0.114C0.032,-0.153 0.021,-0.199 0.021,-0.25C0.021,-0.298 0.03,-0.342 0.049,-0.382C0.068,-0.421 0.096,-0.453 0.133,-0.477C0.17,-0.5 0.217,-0.512 0.272,-0.512C0.315,-0.512 0.353,-0.503 0.386,-0.485C0.418,-0.466 0.443,-0.44 0.461,-0.407C0.479,-0.373 0.488,-0.333 0.488,-0.286C0.488,-0.266 0.486,-0.251 0.482,-0.242C0.477,-0.233 0.466,-0.227 0.449,-0.225L0.17,-0.193C0.18,-0.171 0.196,-0.153 0.218,-0.139C0.24,-0.125 0.268,-0.118 0.302,-0.118C0.321,-0.118 0.341,-0.123 0.362,-0.132C0.382,-0.141 0.4,-0.151 0.417,-0.16C0.424,-0.165 0.432,-0.165 0.439,-0.162C0.446,-0.158 0.451,-0.151 0.454,-0.142L0.474,-0.09C0.477,-0.081 0.48,-0.073 0.481,-0.067C0.482,-0.061 0.478,-0.055 0.47,-0.048C0.445,-0.029 0.416,-0.014 0.382,-0.004C0.348,0.007 0.315,0.012 0.283,0.012ZM0.262,-0.382C0.236,-0.382 0.215,-0.376 0.198,-0.364C0.181,-0.351 0.17,-0.33 0.164,-0.301L0.344,-0.322C0.339,-0.34 0.33,-0.355 0.316,-0.366C0.301,-0.377 0.283,-0.382 0.262,-0.382Z" style="fill:rgb(30,58,138);fill-rule:nonzero;"/>
                    </g>
                    <g transform="matrix(23.5348,0,0,23.5348,37.5147,57.4551)">
                        <path d="M0.19,-0.04C0.19,-0.013 0.177,-0 0.15,-0L0.085,-0C0.058,-0 0.045,-0.013 0.045,-0.04L0.045,-0.68C0.045,-0.707 0.058,-0.72 0.085,-0.72L0.15,-0.72C0.177,-0.72 0.19,-0.707 0.19,-0.68L0.19,-0.04Z" style="fill:rgb(30,58,138);fill-rule:nonzero;"/>
                    </g>
                </g>
                <g transform="matrix(0.80024,0,0,0.80024,327.171,-2.50576)">
                    <g transform="matrix(23.5348,0,0,23.5348,24.5479,77.4193)">
                        <path d="M0.496,-0.02C0.496,0.007 0.483,0.02 0.456,0.02L0.396,0.02C0.369,0.02 0.356,0.007 0.356,-0.02L0.356,-0.259C0.356,-0.296 0.349,-0.324 0.336,-0.342C0.322,-0.359 0.303,-0.368 0.279,-0.368C0.246,-0.368 0.223,-0.357 0.208,-0.336C0.193,-0.315 0.185,-0.281 0.185,-0.234L0.185,-0.04C0.185,-0.013 0.172,-0 0.145,-0L0.085,-0C0.058,-0 0.045,-0.013 0.045,-0.04L0.045,-0.5C0.045,-0.527 0.058,-0.54 0.085,-0.54L0.145,-0.54C0.172,-0.54 0.185,-0.527 0.185,-0.5L0.185,-0.43C0.202,-0.457 0.224,-0.478 0.249,-0.492C0.274,-0.505 0.3,-0.512 0.327,-0.512C0.362,-0.512 0.393,-0.504 0.42,-0.487C0.447,-0.47 0.467,-0.444 0.48,-0.408C0.497,-0.439 0.52,-0.463 0.549,-0.478C0.577,-0.493 0.607,-0.5 0.638,-0.5C0.687,-0.5 0.727,-0.484 0.759,-0.451C0.791,-0.418 0.807,-0.365 0.807,-0.292L0.807,-0.04C0.807,-0.013 0.794,-0 0.767,-0L0.707,-0C0.68,-0 0.667,-0.013 0.667,-0.04L0.667,-0.247C0.667,-0.284 0.66,-0.312 0.647,-0.33C0.633,-0.347 0.614,-0.356 0.59,-0.356C0.557,-0.356 0.534,-0.345 0.519,-0.324C0.503,-0.303 0.496,-0.269 0.496,-0.222L0.496,-0.02Z" style="fill:rgb(30,58,138);fill-rule:nonzero;"/>
                    </g>
                    <g transform="matrix(23.5348,0,0,23.5348,44.4348,77.4193)">
                        <path d="M0.283,0.012C0.23,0.012 0.184,0.001 0.145,-0.021C0.106,-0.043 0.075,-0.074 0.054,-0.114C0.032,-0.153 0.021,-0.199 0.021,-0.25C0.021,-0.298 0.03,-0.342 0.049,-0.382C0.068,-0.421 0.096,-0.453 0.133,-0.477C0.17,-0.5 0.217,-0.512 0.272,-0.512C0.315,-0.512 0.353,-0.503 0.386,-0.485C0.418,-0.466 0.443,-0.44 0.461,-0.407C0.479,-0.373 0.488,-0.333 0.488,-0.286C0.488,-0.266 0.486,-0.251 0.482,-0.242C0.477,-0.233 0.466,-0.227 0.449,-0.225L0.17,-0.193C0.18,-0.171 0.196,-0.153 0.218,-0.139C0.24,-0.125 0.268,-0.118 0.302,-0.118C0.321,-0.118 0.341,-0.123 0.362,-0.132C0.382,-0.141 0.4,-0.151 0.417,-0.16C0.424,-0.165 0.432,-0.165 0.439,-0.162C0.446,-0.158 0.451,-0.151 0.454,-0.142L0.474,-0.09C0.477,-0.081 0.48,-0.073 0.481,-0.067C0.482,-0.061 0.478,-0.055 0.47,-0.048C0.445,-0.029 0.416,-0.014 0.382,-0.004C0.348,0.007 0.315,0.012 0.283,0.012ZM0.262,-0.382C0.236,-0.382 0.215,-0.376 0.198,-0.364C0.181,-0.351 0.17,-0.33 0.164,-0.301L0.344,-0.322C0.339,-0.34 0.33,-0.355 0.316,-0.366C0.301,-0.377 0.283,-0.382 0.262,-0.382Z" style="fill:rgb(30,58,138);fill-rule:nonzero;"/>
                    </g>
                    <g transform="matrix(23.5348,0,0,23.5348,56.2963,77.4193)">
                        <path d="M0.441,-0.032C0.418,-0.015 0.392,-0.001 0.361,0.008C0.329,0.017 0.299,0.022 0.269,0.022C0.214,0.022 0.172,0.005 0.142,-0.029C0.112,-0.063 0.097,-0.114 0.097,-0.181L0.097,-0.311L0.039,-0.314C0.028,-0.315 0.021,-0.318 0.017,-0.323C0.013,-0.328 0.011,-0.336 0.011,-0.345L0.011,-0.425C0.011,-0.434 0.014,-0.443 0.021,-0.45C0.027,-0.456 0.035,-0.46 0.045,-0.459L0.097,-0.456L0.097,-0.57C0.097,-0.59 0.107,-0.6 0.127,-0.6L0.207,-0.6C0.227,-0.6 0.237,-0.59 0.237,-0.57L0.237,-0.448L0.381,-0.439C0.392,-0.438 0.4,-0.435 0.404,-0.43C0.407,-0.425 0.409,-0.417 0.409,-0.408L0.409,-0.328C0.409,-0.319 0.406,-0.311 0.4,-0.304C0.393,-0.297 0.385,-0.293 0.375,-0.294L0.237,-0.302L0.237,-0.206C0.237,-0.174 0.243,-0.152 0.256,-0.14C0.268,-0.127 0.284,-0.121 0.305,-0.121C0.318,-0.121 0.332,-0.124 0.346,-0.131C0.359,-0.137 0.371,-0.143 0.382,-0.15C0.389,-0.155 0.396,-0.155 0.403,-0.152C0.41,-0.148 0.415,-0.141 0.419,-0.132L0.445,-0.074C0.449,-0.065 0.452,-0.058 0.453,-0.051C0.454,-0.044 0.45,-0.038 0.441,-0.032Z" style="fill:rgb(30,58,138);fill-rule:nonzero;"/>
                    </g>
                    <g transform="matrix(23.5348,0,0,23.5348,67.1694,77.4193)">
                        <path d="M0.185,-0.04C0.185,-0.013 0.172,-0 0.145,-0L0.085,-0C0.058,-0 0.045,-0.013 0.045,-0.04L0.045,-0.51C0.045,-0.537 0.058,-0.55 0.085,-0.55L0.145,-0.55C0.172,-0.55 0.185,-0.537 0.185,-0.51L0.185,-0.427C0.202,-0.454 0.222,-0.475 0.246,-0.49C0.269,-0.505 0.293,-0.512 0.316,-0.512C0.327,-0.512 0.338,-0.511 0.349,-0.509C0.359,-0.506 0.367,-0.503 0.374,-0.499C0.381,-0.494 0.384,-0.488 0.383,-0.48L0.373,-0.365C0.372,-0.358 0.37,-0.353 0.366,-0.35C0.361,-0.347 0.355,-0.347 0.346,-0.349C0.332,-0.352 0.32,-0.355 0.31,-0.356C0.3,-0.357 0.291,-0.357 0.282,-0.357C0.255,-0.357 0.232,-0.347 0.213,-0.326C0.194,-0.305 0.185,-0.275 0.185,-0.234L0.185,-0.04Z" style="fill:rgb(30,58,138);fill-rule:nonzero;"/>
                    </g>
                    <g transform="matrix(23.5348,0,0,23.5348,76.4186,77.4193)">
                        <path d="M0.272,0.012C0.22,0.012 0.175,0.001 0.138,-0.023C0.1,-0.046 0.071,-0.077 0.051,-0.116C0.031,-0.155 0.021,-0.2 0.021,-0.25C0.021,-0.3 0.031,-0.345 0.051,-0.385C0.071,-0.424 0.1,-0.455 0.138,-0.478C0.175,-0.501 0.22,-0.512 0.272,-0.512C0.324,-0.512 0.369,-0.501 0.406,-0.478C0.443,-0.455 0.472,-0.424 0.493,-0.385C0.513,-0.345 0.523,-0.3 0.523,-0.25C0.523,-0.2 0.513,-0.155 0.493,-0.116C0.472,-0.077 0.443,-0.046 0.406,-0.023C0.369,0.001 0.324,0.012 0.272,0.012ZM0.272,-0.133C0.303,-0.133 0.329,-0.142 0.351,-0.16C0.372,-0.177 0.383,-0.207 0.383,-0.25C0.383,-0.293 0.372,-0.323 0.351,-0.341C0.329,-0.358 0.303,-0.367 0.272,-0.367C0.241,-0.367 0.215,-0.358 0.194,-0.341C0.172,-0.323 0.161,-0.293 0.161,-0.25C0.161,-0.207 0.172,-0.177 0.194,-0.16C0.215,-0.142 0.241,-0.133 0.272,-0.133Z" style="fill:rgb(30,58,138);fill-rule:nonzero;"/>
                    </g>
                </g>
                <g transform="matrix(0.999499,-0.0316566,0.0316566,0.999499,-1.31159,10.4879)">
                    <g transform="matrix(1,0,0,1,308.333,-106.148)">
                        <path d="M29.415,139.186L15.028,139.301C12.928,139.307 11.219,140.918 11.213,143.018L11.213,158.347C11.219,160.446 12.945,162.172 15.045,162.179L16.482,162.179L14.757,164.478C14.442,164.898 14.529,165.504 14.949,165.819C15.114,165.946 15.316,166.014 15.524,166.011C15.825,166.011 16.109,165.869 16.29,165.628L18.877,162.179L25.583,162.179L28.6,166.058C28.78,166.299 29.065,166.441 29.366,166.441C29.574,166.444 29.776,166.376 29.941,166.25C30.361,165.934 30.448,165.329 30.132,164.908L27.978,162.179L29.415,162.179C31.515,162.172 33.241,160.446 33.247,158.347L33.079,143.1C33.073,141 31.515,139.193 29.415,139.186Z" style="fill:rgb(30,58,138);fill-rule:nonzero;"/>
                    </g>
                    <g transform="matrix(1.39193,0,0,1.51977,301.759,-32.1574)">
                        <path d="M15.396,52.403C15.396,52.403 15.186,49.449 17.463,49.449C19.74,49.449 19.618,52.378 19.618,52.378" style="fill:none;stroke:white;stroke-width:0.58px;"/>
                    </g>
                    <g transform="matrix(1.33059,0,0,1.51977,311.848,-32.1574)">
                        <path d="M15.396,52.403C15.396,52.403 15.186,49.449 17.463,49.449C19.74,49.449 19.618,52.378 19.618,52.378" style="fill:none;stroke:white;stroke-width:0.59px;"/>
                    </g>
                    <g transform="matrix(1,0,0,1,308.837,-107.248)">
                        <path d="M19.185,159.047C20.444,160.651 23.13,160.5 24.267,159.029" style="fill:none;stroke:white;stroke-width:0.85px;"/>
                    </g>
                </g>
            </g>
        </g>
    </g>
</svg>
